# xmcd
#
# Track frame offsets: 
#        150
#        14813
#        29018
#        41626
#        55721
#        69978
#        84045
#        96876
#        110556
#        122196
#        134703
#        148251
#        159706
#        171643
#        184718
#        197338
#        208231
#        221755
#        234286
#        248455
#        259726
#        274183
#        289568
#        302566
#        316685
#        330103
#
# Disc length: 4592 seconds
#
# Revision: 3
# Processed by: cddbd v1.5.2PL0 Copyright (c) Steve Scherf et al.
# Submitted via: ExactAudioCopyFreeDBPlugin 1.0
#
DISCID=7d11ee1a
DTITLE=Charlie Parker - Charlie Parker:  A Studio Chronicle, 1940-1948
DTITLE=[JSP Records]
DYEAR=2003
DGENRE=Jazz
TTITLE0=This is Always
TTITLE1=Dark Shadows
TTITLE2=Bird's Nest
TTITLE3=Cool Blues
TTITLE4=Relaxin' at Camarillo
TTITLE5=Cheers
TTITLE6=Carvin' the Bird
TTITLE7=Stupendous
TTITLE8=Donna Lee
TTITLE9=Chasin' the Bird
TTITLE10=Cheryl
TTITLE11=Buzzy
TTITLE12=Milestones
TTITLE13=Little Willie Leaps
TTITLE14=Half Nelson
TTITLE15=Sippin' at Bell's
TTITLE16=Dexterity
TTITLE17=Bongo Bop
TTITLE18=Dewey Square
TTITLE19=The Hymn
TTITLE20=Bird of Paradise
TTITLE21=Embraceable You
TTITLE22=Bird Feathers
TTITLE23=Klactoveedsedsteene
TTITLE24=Scrapple from the Apple
TTITLE25=My Old Flame
EXTD=YEAR: 2003
EXTT0=
EXTT1=
EXTT2=
EXTT3=
EXTT4=
EXTT5=
EXTT6=
EXTT7=
EXTT8=
EXTT9=
EXTT10=
EXTT11=
EXTT12=
EXTT13=
EXTT14=
EXTT15=
EXTT16=
EXTT17=
EXTT18=
EXTT19=
EXTT20=
EXTT21=
EXTT22=
EXTT23=
EXTT24=
EXTT25=
PLAYORDER=
